<svg xmlns="http://www.w3.org/2000/svg" width="20" height="20" viewBox="0 0 20 20">
  <g id="Group_40011" data-name="Group 40011" transform="translate(-37 -13)">
    <g id="customer-support" transform="translate(37.625 12.928)">
      <path id="Path_81984" data-name="Path 81984" d="M17.949,9.165a8.092,8.092,0,0,0-16.174,0A1.9,1.9,0,0,0,.643,10.9v2.135a1.9,1.9,0,0,0,1.9,1.9,1.232,1.232,0,0,0,1.23-1.23V10.231a1.228,1.228,0,0,0-1.11-1.218,7.21,7.21,0,0,1,14.393,0,1.228,1.228,0,0,0-1.108,1.218v3.478a1.227,1.227,0,0,0,1.125,1.22v.879A1.8,1.8,0,0,1,15.28,17.6H13.95a1.321,1.321,0,0,0-1.255-.893h-1.37a1.315,1.315,0,0,0-.558.122,1.337,1.337,0,0,0-.776,1.212,1.336,1.336,0,0,0,1.335,1.335H12.7a1.34,1.34,0,0,0,1.255-.893H15.28a2.68,2.68,0,0,0,2.677-2.677V14.771a1.9,1.9,0,0,0,1.125-1.734V10.9a1.9,1.9,0,0,0-1.132-1.737ZM2.893,10.231v3.478a.349.349,0,0,1-.348.348,1.021,1.021,0,0,1-1.02-1.02V10.9a1.021,1.021,0,0,1,1.02-1.02A.349.349,0,0,1,2.893,10.231Zm10.246,7.906a.454.454,0,0,1-.443.358h-1.37a.452.452,0,0,1-.188-.864.438.438,0,0,1,.188-.041H12.7a.454.454,0,0,1,.443.546Zm5.061-5.1a1.021,1.021,0,0,1-1.02,1.02.349.349,0,0,1-.348-.348V10.231a.349.349,0,0,1,.348-.348A1.021,1.021,0,0,1,18.2,10.9Z" transform="translate(0)" fill="#5a4bda" stroke="#5a4bda" stroke-width="0.3"/>
      <path id="Path_81985" data-name="Path 81985" d="M23.511,23.474a1.871,1.871,0,0,0,1.869-1.869V17.8a1.871,1.871,0,0,0-1.869-1.869H17.8A1.871,1.871,0,0,0,15.931,17.8v3.808A1.871,1.871,0,0,0,17.8,23.474h.035v.987a.916.916,0,0,0,.915.918.9.9,0,0,0,.646-.273l1.641-1.633Zm-2.967-.754-1.776,1.767a.022.022,0,0,1-.031.007.03.03,0,0,1-.02-.033V23.033a.441.441,0,0,0-.441-.441H17.8a.988.988,0,0,1-.987-.987V17.8a.988.988,0,0,1,.987-.987h5.711a.989.989,0,0,1,.987.987v3.808a.988.988,0,0,1-.987.987H20.855a.441.441,0,0,0-.311.128Z" transform="translate(-10.793 -10.285)" fill="#5a4bda" stroke="#5a4bda" stroke-width="0.3"/>
      <path id="Path_81986" data-name="Path 81986" d="M23.151,26.787a.651.651,0,1,0,.651.651A.652.652,0,0,0,23.151,26.787Z" transform="translate(-15.431 -17.951)" fill="#5a4bda" stroke="#5a4bda" stroke-width="0.3"/>
      <path id="Path_81987" data-name="Path 81987" d="M30.437,26.787a.651.651,0,1,0,.651.651A.652.652,0,0,0,30.437,26.787Z" transform="translate(-20.575 -17.951)" fill="#5a4bda" stroke="#5a4bda" stroke-width="0.3"/>
      <path id="Path_81988" data-name="Path 81988" d="M37.723,26.787a.651.651,0,1,0,.651.651A.652.652,0,0,0,37.723,26.787Z" transform="translate(-25.719 -17.951)" fill="#5a4bda" stroke="#5a4bda" stroke-width="0.3"/>
    </g>
    <rect id="Rectangle_7595" data-name="Rectangle 7595" width="20" height="20" transform="translate(37 13)" fill="none"/>
  </g>
</svg>
