<svg xmlns="http://www.w3.org/2000/svg" width="20" height="20" viewBox="0 0 20 20">
  <g id="Group_40010" data-name="Group 40010" transform="translate(-36 -163)">
    <path id="online-learning" d="M11.826,9.487a.677.677,0,0,0-1.354,0Zm-1.354,10a.677.677,0,1,0,1.354,0ZM5.367,7.352l-.074.673Zm5.288,1.694.381-.56ZM5.367,18.137l.074-.673Zm5.288,1.694.381-.56Zm6.275-12.48-.074-.673ZM11.642,9.046l-.381-.56Zm5.288,9.091-.074-.673Zm-5.288,1.694-.381-.56ZM9,4.532A.677.677,0,0,0,9.683,5.7ZM12.616,5.7a.677.677,0,1,0,.678-1.172ZM7.151,2.5a.677.677,0,0,0,.775,1.111Zm7.222,1.111A.677.677,0,0,0,15.148,2.5Zm-3.9,5.872v10h1.354v-10ZM5.293,8.025a11.615,11.615,0,0,1,4.981,1.581l.762-1.119a12.924,12.924,0,0,0-5.6-1.808Zm0,10.786a11.615,11.615,0,0,1,4.981,1.581l.762-1.119a12.925,12.925,0,0,0-5.6-1.808ZM3.25,8.7v7.909H4.6V8.7Zm2.191,8.762a.9.9,0,0,1-.837-.852H3.25a2.257,2.257,0,0,0,2.043,2.2Zm0-10.786A2,2,0,0,0,3.25,8.7H4.6a.642.642,0,0,1,.689-.678Zm11.416,0a12.924,12.924,0,0,0-5.6,1.808l.762,1.119A11.616,11.616,0,0,1,17,8.025Zm0,10.786a12.925,12.925,0,0,0-5.6,1.808l.762,1.119A11.615,11.615,0,0,1,17,18.81ZM17.694,8.7v7.909h1.354V8.7ZM17,18.81a2.257,2.257,0,0,0,2.043-2.2H17.694a.9.9,0,0,1-.837.852ZM17,8.025a.642.642,0,0,1,.689.678h1.354a2,2,0,0,0-2.191-2.024Zm-6.73,12.367a1.56,1.56,0,0,0,1.749,0l-.762-1.119a.207.207,0,0,1-.224,0Zm0-10.786a1.561,1.561,0,0,0,1.749,0l-.762-1.119a.207.207,0,0,1-.224,0ZM9.683,5.7a2.918,2.918,0,0,1,1.467-.392V3.958A4.272,4.272,0,0,0,9,4.532Zm1.467-.392a2.918,2.918,0,0,1,1.467.392l.678-1.172a4.271,4.271,0,0,0-2.145-.574Zm-3.224-1.7A5.613,5.613,0,0,1,11.149,2.6V1.25a6.967,6.967,0,0,0-4,1.254ZM11.149,2.6a5.613,5.613,0,0,1,3.224,1.011L15.148,2.5a6.967,6.967,0,0,0-4-1.254Z" transform="translate(35.271 162.162)" fill="#5a4bda"/>
    <rect id="Rectangle_16924" data-name="Rectangle 16924" width="20" height="20" transform="translate(36 163)" fill="none"/>
  </g>
</svg>
