<svg id="Group_34" data-name="Group 34" xmlns="http://www.w3.org/2000/svg" width="216.454" height="122.779" viewBox="0 0 216.454 122.779">
  <g id="Group_4" data-name="Group 4" transform="translate(0 0)" opacity="0.6">
    <circle id="Ellipse_5" data-name="Ellipse 5" cx="2.274" cy="2.274" r="2.274" transform="translate(102.77 0) rotate(90)" fill="#316aff"/>
    <circle id="Ellipse_39" data-name="Ellipse 39" cx="2.274" cy="2.274" r="2.274" transform="translate(119.141) rotate(90)" fill="#316aff"/>
    <circle id="Ellipse_43" data-name="Ellipse 43" cx="2.274" cy="2.274" r="2.274" transform="translate(135.511 0) rotate(90)" fill="#316aff"/>
    <circle id="Ellipse_10" data-name="Ellipse 10" cx="2.274" cy="2.274" r="2.274" transform="translate(86.4 0) rotate(90)" fill="#316aff"/>
    <circle id="Ellipse_15" data-name="Ellipse 15" cx="2.274" cy="2.274" r="2.274" transform="translate(70.029 0) rotate(90)" fill="#316aff"/>
    <circle id="Ellipse_20" data-name="Ellipse 20" cx="2.274" cy="2.274" r="2.274" transform="translate(53.659 0) rotate(90)" fill="#316aff"/>
    <circle id="Ellipse_25" data-name="Ellipse 25" cx="2.274" cy="2.274" r="2.274" transform="translate(37.288 0) rotate(90)" fill="#316aff"/>
    <circle id="Ellipse_30" data-name="Ellipse 30" cx="2.274" cy="2.274" r="2.274" transform="translate(20.918 0) rotate(90)" fill="#316aff"/>
    <circle id="Ellipse_35" data-name="Ellipse 35" cx="2.274" cy="2.274" r="2.274" transform="translate(4.547 0) rotate(90)" fill="#316aff"/>
    <circle id="Ellipse_6" data-name="Ellipse 6" cx="2.274" cy="2.274" r="2.274" transform="translate(102.77 13.642) rotate(90)" fill="#316aff"/>
    <circle id="Ellipse_40" data-name="Ellipse 40" cx="2.274" cy="2.274" r="2.274" transform="translate(119.141 13.642) rotate(90)" fill="#316aff"/>
    <circle id="Ellipse_44" data-name="Ellipse 44" cx="2.274" cy="2.274" r="2.274" transform="translate(135.511 13.642) rotate(90)" fill="#316aff"/>
    <circle id="Ellipse_11" data-name="Ellipse 11" cx="2.274" cy="2.274" r="2.274" transform="translate(86.4 13.642) rotate(90)" fill="#316aff"/>
    <circle id="Ellipse_16" data-name="Ellipse 16" cx="2.274" cy="2.274" r="2.274" transform="translate(70.029 13.642) rotate(90)" fill="#316aff"/>
    <circle id="Ellipse_21" data-name="Ellipse 21" cx="2.274" cy="2.274" r="2.274" transform="translate(53.659 13.642) rotate(90)" fill="#316aff"/>
    <circle id="Ellipse_26" data-name="Ellipse 26" cx="2.274" cy="2.274" r="2.274" transform="translate(37.288 13.642) rotate(90)" fill="#316aff"/>
    <circle id="Ellipse_31" data-name="Ellipse 31" cx="2.274" cy="2.274" r="2.274" transform="translate(20.918 13.642) rotate(90)" fill="#316aff"/>
    <circle id="Ellipse_36" data-name="Ellipse 36" cx="2.274" cy="2.274" r="2.274" transform="translate(4.547 13.642) rotate(90)" fill="#316aff"/>
    <circle id="Ellipse_7" data-name="Ellipse 7" cx="2.274" cy="2.274" r="2.274" transform="translate(102.77 27.284) rotate(90)" fill="#316aff"/>
    <circle id="Ellipse_41" data-name="Ellipse 41" cx="2.274" cy="2.274" r="2.274" transform="translate(119.141 27.284) rotate(90)" fill="#316aff"/>
    <circle id="Ellipse_45" data-name="Ellipse 45" cx="2.274" cy="2.274" r="2.274" transform="translate(135.511 27.284) rotate(90)" fill="#316aff"/>
    <circle id="Ellipse_12" data-name="Ellipse 12" cx="2.274" cy="2.274" r="2.274" transform="translate(86.4 27.284) rotate(90)" fill="#316aff"/>
    <circle id="Ellipse_17" data-name="Ellipse 17" cx="2.274" cy="2.274" r="2.274" transform="translate(70.029 27.284) rotate(90)" fill="#316aff"/>
    <circle id="Ellipse_22" data-name="Ellipse 22" cx="2.274" cy="2.274" r="2.274" transform="translate(53.659 27.284) rotate(90)" fill="#316aff"/>
    <circle id="Ellipse_27" data-name="Ellipse 27" cx="2.274" cy="2.274" r="2.274" transform="translate(37.288 27.284) rotate(90)" fill="#316aff"/>
    <circle id="Ellipse_32" data-name="Ellipse 32" cx="2.274" cy="2.274" r="2.274" transform="translate(20.918 27.284) rotate(90)" fill="#316aff"/>
    <circle id="Ellipse_37" data-name="Ellipse 37" cx="2.274" cy="2.274" r="2.274" transform="translate(4.547 27.284) rotate(90)" fill="#316aff"/>
    <circle id="Ellipse_8" data-name="Ellipse 8" cx="2.274" cy="2.274" r="2.274" transform="translate(102.77 40.926) rotate(90)" fill="#316aff"/>
    <circle id="Ellipse_42" data-name="Ellipse 42" cx="2.274" cy="2.274" r="2.274" transform="translate(119.141 40.926) rotate(90)" fill="#316aff"/>
    <circle id="Ellipse_46" data-name="Ellipse 46" cx="2.274" cy="2.274" r="2.274" transform="translate(135.511 40.926) rotate(90)" fill="#316aff"/>
    <circle id="Ellipse_13" data-name="Ellipse 13" cx="2.274" cy="2.274" r="2.274" transform="translate(86.4 40.926) rotate(90)" fill="#316aff"/>
    <circle id="Ellipse_18" data-name="Ellipse 18" cx="2.274" cy="2.274" r="2.274" transform="translate(70.029 40.926) rotate(90)" fill="#316aff"/>
    <circle id="Ellipse_23" data-name="Ellipse 23" cx="2.274" cy="2.274" r="2.274" transform="translate(53.659 40.926) rotate(90)" fill="#316aff"/>
    <circle id="Ellipse_28" data-name="Ellipse 28" cx="2.274" cy="2.274" r="2.274" transform="translate(37.288 40.926) rotate(90)" fill="#316aff"/>
    <circle id="Ellipse_33" data-name="Ellipse 33" cx="2.274" cy="2.274" r="2.274" transform="translate(20.918 40.926) rotate(90)" fill="#316aff"/>
    <circle id="Ellipse_38" data-name="Ellipse 38" cx="2.274" cy="2.274" r="2.274" transform="translate(4.547 40.926) rotate(90)" fill="#316aff"/>
  </g>
  <g id="Group_30" data-name="Group 30" transform="translate(80.943 77.305)" opacity="0.3">
    <circle id="Ellipse_5-2" data-name="Ellipse 5" cx="2.274" cy="2.274" r="2.274" transform="translate(102.77 0) rotate(90)" fill="#316aff"/>
    <circle id="Ellipse_39-2" data-name="Ellipse 39" cx="2.274" cy="2.274" r="2.274" transform="translate(119.141 0) rotate(90)" fill="#316aff"/>
    <circle id="Ellipse_43-2" data-name="Ellipse 43" cx="2.274" cy="2.274" r="2.274" transform="translate(135.511 0) rotate(90)" fill="#316aff"/>
    <circle id="Ellipse_10-2" data-name="Ellipse 10" cx="2.274" cy="2.274" r="2.274" transform="translate(86.4 0) rotate(90)" fill="#316aff"/>
    <circle id="Ellipse_15-2" data-name="Ellipse 15" cx="2.274" cy="2.274" r="2.274" transform="translate(70.029 0) rotate(90)" fill="#316aff"/>
    <circle id="Ellipse_20-2" data-name="Ellipse 20" cx="2.274" cy="2.274" r="2.274" transform="translate(53.659 0) rotate(90)" fill="#316aff"/>
    <circle id="Ellipse_25-2" data-name="Ellipse 25" cx="2.274" cy="2.274" r="2.274" transform="translate(37.288 0) rotate(90)" fill="#316aff"/>
    <circle id="Ellipse_30-2" data-name="Ellipse 30" cx="2.274" cy="2.274" r="2.274" transform="translate(20.918 0) rotate(90)" fill="#316aff"/>
    <circle id="Ellipse_35-2" data-name="Ellipse 35" cx="2.274" cy="2.274" r="2.274" transform="translate(4.547 0) rotate(90)" fill="#316aff"/>
    <circle id="Ellipse_6-2" data-name="Ellipse 6" cx="2.274" cy="2.274" r="2.274" transform="translate(102.77 13.642) rotate(90)" fill="#316aff"/>
    <circle id="Ellipse_40-2" data-name="Ellipse 40" cx="2.274" cy="2.274" r="2.274" transform="translate(119.141 13.642) rotate(90)" fill="#316aff"/>
    <circle id="Ellipse_44-2" data-name="Ellipse 44" cx="2.274" cy="2.274" r="2.274" transform="translate(135.511 13.642) rotate(90)" fill="#316aff"/>
    <circle id="Ellipse_11-2" data-name="Ellipse 11" cx="2.274" cy="2.274" r="2.274" transform="translate(86.4 13.642) rotate(90)" fill="#316aff"/>
    <circle id="Ellipse_16-2" data-name="Ellipse 16" cx="2.274" cy="2.274" r="2.274" transform="translate(70.029 13.642) rotate(90)" fill="#316aff"/>
    <circle id="Ellipse_21-2" data-name="Ellipse 21" cx="2.274" cy="2.274" r="2.274" transform="translate(53.659 13.642) rotate(90)" fill="#316aff"/>
    <circle id="Ellipse_26-2" data-name="Ellipse 26" cx="2.274" cy="2.274" r="2.274" transform="translate(37.288 13.642) rotate(90)" fill="#316aff"/>
    <circle id="Ellipse_31-2" data-name="Ellipse 31" cx="2.274" cy="2.274" r="2.274" transform="translate(20.918 13.642) rotate(90)" fill="#316aff"/>
    <circle id="Ellipse_36-2" data-name="Ellipse 36" cx="2.274" cy="2.274" r="2.274" transform="translate(4.547 13.642) rotate(90)" fill="#316aff"/>
    <circle id="Ellipse_7-2" data-name="Ellipse 7" cx="2.274" cy="2.274" r="2.274" transform="translate(102.77 27.284) rotate(90)" fill="#316aff"/>
    <circle id="Ellipse_41-2" data-name="Ellipse 41" cx="2.274" cy="2.274" r="2.274" transform="translate(119.141 27.284) rotate(90)" fill="#316aff"/>
    <circle id="Ellipse_45-2" data-name="Ellipse 45" cx="2.274" cy="2.274" r="2.274" transform="translate(135.511 27.284) rotate(90)" fill="#316aff"/>
    <circle id="Ellipse_12-2" data-name="Ellipse 12" cx="2.274" cy="2.274" r="2.274" transform="translate(86.4 27.284) rotate(90)" fill="#316aff"/>
    <circle id="Ellipse_17-2" data-name="Ellipse 17" cx="2.274" cy="2.274" r="2.274" transform="translate(70.029 27.284) rotate(90)" fill="#316aff"/>
    <circle id="Ellipse_22-2" data-name="Ellipse 22" cx="2.274" cy="2.274" r="2.274" transform="translate(53.659 27.284) rotate(90)" fill="#316aff"/>
    <circle id="Ellipse_27-2" data-name="Ellipse 27" cx="2.274" cy="2.274" r="2.274" transform="translate(37.288 27.284) rotate(90)" fill="#316aff"/>
    <circle id="Ellipse_32-2" data-name="Ellipse 32" cx="2.274" cy="2.274" r="2.274" transform="translate(20.918 27.284) rotate(90)" fill="#316aff"/>
    <circle id="Ellipse_37-2" data-name="Ellipse 37" cx="2.274" cy="2.274" r="2.274" transform="translate(4.547 27.284) rotate(90)" fill="#316aff"/>
    <circle id="Ellipse_8-2" data-name="Ellipse 8" cx="2.274" cy="2.274" r="2.274" transform="translate(102.77 40.926) rotate(90)" fill="#316aff"/>
    <circle id="Ellipse_42-2" data-name="Ellipse 42" cx="2.274" cy="2.274" r="2.274" transform="translate(119.141 40.926) rotate(90)" fill="#316aff"/>
    <circle id="Ellipse_46-2" data-name="Ellipse 46" cx="2.274" cy="2.274" r="2.274" transform="translate(135.511 40.926) rotate(90)" fill="#316aff"/>
    <circle id="Ellipse_13-2" data-name="Ellipse 13" cx="2.274" cy="2.274" r="2.274" transform="translate(86.4 40.926) rotate(90)" fill="#316aff"/>
    <circle id="Ellipse_18-2" data-name="Ellipse 18" cx="2.274" cy="2.274" r="2.274" transform="translate(70.029 40.926) rotate(90)" fill="#316aff"/>
    <circle id="Ellipse_23-2" data-name="Ellipse 23" cx="2.274" cy="2.274" r="2.274" transform="translate(53.659 40.926) rotate(90)" fill="#316aff"/>
    <circle id="Ellipse_28-2" data-name="Ellipse 28" cx="2.274" cy="2.274" r="2.274" transform="translate(37.288 40.926) rotate(90)" fill="#316aff"/>
    <circle id="Ellipse_33-2" data-name="Ellipse 33" cx="2.274" cy="2.274" r="2.274" transform="translate(20.918 40.926) rotate(90)" fill="#316aff"/>
    <circle id="Ellipse_38-2" data-name="Ellipse 38" cx="2.274" cy="2.274" r="2.274" transform="translate(4.547 40.926) rotate(90)" fill="#316aff"/>
  </g>
</svg>
