<svg xmlns="http://www.w3.org/2000/svg" width="24" height="24" viewBox="0 0 24 24">
  <g id="Group_40186" data-name="Group 40186" transform="translate(-6641 -11422)">
    <rect id="Rectangle_16969" data-name="Rectangle 16969" width="24" height="24" transform="translate(6641 11422)" fill="#fff" opacity="0.004"/>
    <path id="Icon_awesome-calendar-alt" data-name="Icon awesome-calendar-alt" d="M0,18.864a1.952,1.952,0,0,0,1.951,1.951H16.262a1.952,1.952,0,0,0,1.951-1.951V7.806H0ZM13.01,10.9a.489.489,0,0,1,.488-.488h1.626a.489.489,0,0,1,.488.488v1.626a.489.489,0,0,1-.488.488H13.5a.489.489,0,0,1-.488-.488Zm0,5.2a.489.489,0,0,1,.488-.488h1.626a.489.489,0,0,1,.488.488v1.626a.489.489,0,0,1-.488.488H13.5a.489.489,0,0,1-.488-.488Zm-5.2-5.2a.489.489,0,0,1,.488-.488H9.92a.489.489,0,0,1,.488.488v1.626a.489.489,0,0,1-.488.488H8.294a.489.489,0,0,1-.488-.488Zm0,5.2a.489.489,0,0,1,.488-.488H9.92a.489.489,0,0,1,.488.488v1.626a.489.489,0,0,1-.488.488H8.294a.489.489,0,0,1-.488-.488ZM2.6,10.9a.489.489,0,0,1,.488-.488H4.716A.489.489,0,0,1,5.2,10.9v1.626a.489.489,0,0,1-.488.488H3.09a.489.489,0,0,1-.488-.488Zm0,5.2a.489.489,0,0,1,.488-.488H4.716A.489.489,0,0,1,5.2,16.1v1.626a.489.489,0,0,1-.488.488H3.09a.489.489,0,0,1-.488-.488ZM16.262,2.6H14.311V.65A.652.652,0,0,0,13.66,0h-1.3a.652.652,0,0,0-.65.65V2.6H6.5V.65A.652.652,0,0,0,5.854,0h-1.3A.652.652,0,0,0,3.9.65V2.6H1.951A1.952,1.952,0,0,0,0,4.553V6.5H18.213V4.553A1.952,1.952,0,0,0,16.262,2.6Z" transform="translate(6643.894 11423.592)" fill="none" stroke="#000" stroke-width="1"/>
  </g>
</svg>
