<svg xmlns="http://www.w3.org/2000/svg" width="21.217" height="16.951" viewBox="0 0 21.217 16.951">
  <path id="courses_active" d="M21.035,63.9l-1.643-1.643V56.624l1.073-.387a.622.622,0,0,0,0-1.169l-9.816-3.555a.622.622,0,0,0-.423,0L.41,55.068a.622.622,0,0,0,0,1.167l3.623,1.342v7.06a.621.621,0,0,0,.112.355,3.789,3.789,0,0,0,1.389,1.063,10.68,10.68,0,0,0,4.776.929,10.866,10.866,0,0,0,4.8-.928A3.94,3.94,0,0,0,16.517,65a.622.622,0,0,0,.119-.366v-7.02l1.513-.545v5.189L16.505,63.9a.621.621,0,0,0,0,.879l1.643,1.643v1.379a.622.622,0,0,0,1.243,0V66.427l1.643-1.643A.621.621,0,0,0,21.035,63.9Zm-10.6-11.146,7.987,2.893-8.117,2.927L2.428,55.659Zm4.955,11.631C13.268,66.3,6.954,66.082,5.271,64.4V58.038l4.817,1.784a.617.617,0,0,0,.427,0l4.878-1.759v6.324Zm3.377.9-.947-.946.947-.947.946.947Z" transform="translate(0 -51.476)" fill="#5a4bda"/>
</svg>
