<svg id="Icon_ionic-ios-add-circle-outline" data-name="Icon ionic-ios-add-circle-outline" xmlns="http://www.w3.org/2000/svg" width="25" height="25" viewBox="0 0 25 25">
  <path id="Path_81760" data-name="Path 81760" d="M22.351,15.95H17.873V11.473a.962.962,0,1,0-1.923,0V15.95H11.473a.921.921,0,0,0-.962.962.931.931,0,0,0,.962.962H15.95v4.477a.931.931,0,0,0,.962.962.957.957,0,0,0,.962-.962V17.873h4.477a.962.962,0,1,0,0-1.923Z" transform="translate(-4.412 -4.412)" fill="#555"/>
  <path id="Path_81761" data-name="Path 81761" d="M15.875,5.058a10.813,10.813,0,1,1-7.65,3.167,10.746,10.746,0,0,1,7.65-3.167m0-1.683a12.5,12.5,0,1,0,12.5,12.5,12.5,12.5,0,0,0-12.5-12.5Z" transform="translate(-3.375 -3.375)" fill="#555"/>
</svg>
